<?xml version="1.0" encoding="UTF-8" standalone="no"?>
<svg
   xmlns:dc="http://purl.org/dc/elements/1.1/"
   xmlns:cc="http://creativecommons.org/ns#"
   xmlns:rdf="http://www.w3.org/1999/02/22-rdf-syntax-ns#"
   xmlns:svg="http://www.w3.org/2000/svg"
   xmlns="http://www.w3.org/2000/svg"
   xmlns:sodipodi="http://sodipodi.sourceforge.net/DTD/sodipodi-0.dtd"
   xmlns:inkscape="http://www.inkscape.org/namespaces/inkscape"
   inkscape:version="1.0 (4035a4fb49, 2020-05-01)"
   sodipodi:docname="Recipe_Logo_Svg.svg"
   viewBox="0 0 342 235"
   height="235"
   width="342"
   id="svg2"
   version="1.1"
   inkscape:export-filename="E:\Design\Recipes Design\Recipe_Logo_Svg.png"
   inkscape:export-xdpi="116.415"
   inkscape:export-ydpi="116.415">
  <metadata
     id="metadata8">
    <rdf:RDF>
      <cc:Work
         rdf:about="">
        <dc:format>image/svg+xml</dc:format>
        <dc:type
           rdf:resource="http://purl.org/dc/dcmitype/StillImage" />
        <dc:title />
      </cc:Work>
    </rdf:RDF>
  </metadata>
  <defs
     id="defs6" />
  <sodipodi:namedview
     inkscape:current-layer="g10"
     inkscape:window-maximized="1"
     inkscape:window-y="-8"
     inkscape:window-x="-8"
     inkscape:cy="72.447456"
     inkscape:cx="44.989556"
     inkscape:zoom="0.73126544"
     showgrid="false"
     id="namedview4"
     inkscape:window-height="705"
     inkscape:window-width="1366"
     inkscape:pageshadow="2"
     inkscape:pageopacity="0"
     guidetolerance="10"
     gridtolerance="10"
     objecttolerance="10"
     borderopacity="1"
     bordercolor="#666666"
     pagecolor="#ffffff"
     inkscape:document-rotation="0" />
  <g
     id="g10"
     inkscape:label="Image"
     inkscape:groupmode="layer">
    <g
       id="g986"
       transform="matrix(1.4066862,0,0,1.4616945,-0.16357089,-0.48700733)">
      <path
         style="fill:#a7ac93;fill-opacity:1;stroke-width:0.941285"
         d="M 15.987312,160.822 C 12.97679,159.70626 6.4020048,151.39318 4.3993907,147.12209 1.9139264,141.82118 0.40220415,134.77882 0.40220415,128.50118 v -5.35572 H 73.587064 c 84.643706,0 78.950796,0.52138 101.939286,-9.33597 7.37007,-3.16025 14.72916,-6.19345 16.35352,-6.74043 10.78283,-3.63104 27.54975,-4.71871 42.14598,-2.73404 10.29695,1.40009 10.50346,1.61896 6.41837,6.80243 -3.36768,4.27317 -3.51925,4.34924 -7.78692,3.90799 -9.50889,-0.98314 -22.11506,-0.30721 -29.94836,1.6058 -4.33163,1.05785 -16.07133,4.97507 -26.08822,8.70493 -10.01689,3.72986 -21.61034,7.48109 -25.76322,8.33606 l -7.55071,1.55449 -0.60458,3.68578 c -1.26901,7.73641 -7.26434,18.89021 -13.49128,22.03099 -67.480392,-0.10038 -65.038894,0.0108 -113.223618,-0.14149 z"
         id="path837"
         sodipodi:nodetypes="csscssssssssscscc" />
      <path
         sodipodi:nodetypes="cssscccc"
         id="path837-5-8"
         d="m 41.944905,28.917704 c 2.580811,1.371728 3.31202,2.489382 4.621488,7.063958 1.984676,6.933404 1.232654,8.022883 -4.340037,6.287589 -4.718388,-1.469272 -6.984253,-3.812071 -7.819794,-8.085282 l -0.554833,-2.837754 c 0,0 0.148228,-2.787489 3.14552,-3.738353 1.034994,-0.175841 3.261459,0.413581 4.947694,1.309835 z"
         style="fill:#d4aa00;stroke-width:0.941285" />
      <path
         style="fill:#d4aa00;stroke-width:0.941285"
         d="m 96.296611,31.966214 c -2.263217,-1.779728 -2.758745,-3.000706 -3.131905,-7.717005 -0.565573,-7.148204 0.39153,-8.093728 5.523603,-5.456803 4.345311,2.232681 6.104811,4.914525 6.072251,9.255369 l -0.0217,2.882662 c 0,0 -1.61974,2.449655 -3.8397,3.150008 -1.052711,0 -3.123901,-0.951402 -4.602629,-2.114231 z"
         id="path837-5-8-3"
         sodipodi:nodetypes="cssscccc" />
      <path
         sodipodi:nodetypes="sssssssssssscs"
         id="path837-5-1"
         d="m 114.49634,112.14837 c -3.85963,1.90206 -7.44234,1.30552 -12.56778,-2.09261 -5.593518,-3.70845 -7.649259,-7.78299 -5.106631,-10.12149 0.91995,-0.846092 2.24886,-1.380567 2.95315,-1.187733 1.596021,0.436996 3.404801,-1.610329 3.365501,-3.809367 -0.0362,-2.028353 3.23726,-3.777777 5.77087,-3.084064 3.19983,0.876125 6.53246,4.516265 8.24856,9.009644 1.9592,5.12999 0.92359,9.51778 -2.66367,11.28562 z M 101.90787,98.041244 c -3.774115,-3.267104 -6.182883,-1.604677 -7.671549,0.687376 -0.798898,1.230051 -0.884573,1.049358 -0.374175,-0.789176 0.823757,-2.967343 5.547406,-4.626579 8.941374,-0.267462 l 2.73361,3.510968 z"
         style="fill:#66c900;fill-opacity:1;stroke-width:0.941285" />
      <path
         sodipodi:nodetypes="ccssssscscc"
         id="path837-3"
         d="m 101.92482,59.53622 2.23029,-2.119586 3.31495,2.556033 c 2.58678,1.994576 3.52641,2.279949 4.27768,1.299127 1.32695,-1.732406 5.85341,-2.327307 7.57108,-0.995052 2.90823,2.255658 -0.0991,9.595216 -5.44091,13.278897 -4.47321,3.084722 -5.94377,3.237884 -8.37628,0.872435 -1.86757,-1.816078 -1.92992,-2.141951 -0.84959,-4.441789 1.23818,-2.636579 0.30826,-4.543576 -3.07586,-6.307643 -2.306191,-1.202151 -2.268011,-1.655401 0.34896,-4.142467 z"
         style="fill:#decd87;stroke-width:0.941285"
         inkscape:transform-center-x="-1.4504449"
         inkscape:transform-center-y="-13.054004" />
      <path
         sodipodi:nodetypes="sssss"
         id="path837-5-3"
         d="M 58.930202,10.9902 C 55.656387,10.404766 53.32794,7.5413648 54.034084,4.9692217 55.306303,0.33519169 66.86093,-0.40716607 69.979988,3.9447313 c 1.997717,2.7873246 0.615908,5.3143956 -3.649151,6.6736507 -3.176225,1.01225 -3.678251,1.037468 -7.400635,0.371818 z"
         style="fill:#decd87;fill-opacity:1;stroke-width:0.941285" />
      <path
         sodipodi:nodetypes="cssssscsc"
         id="path837-5-62-2"
         d="m 34.622041,86.625983 c 6.723089,-2.378813 6.689346,-2.323958 2.98268,-4.84904 -2.702726,-1.841189 -2.409971,-1.817617 1.565676,0.126063 4.607735,2.252696 5.084991,2.245451 8.268598,-0.125496 3.194319,-2.378994 3.315285,-2.380443 2.217723,-0.02673 -0.77617,1.664527 0.364123,3.799557 3.440788,6.442305 2.53092,2.173991 5.044952,6.200736 5.586764,8.948334 -3.34985,6.293161 -6.574064,8.635301 -9.514179,8.647231 -8.446358,0.0343 -14.54805,-19.162667 -14.54805,-19.162667 z"
         style="fill:#decd87;stroke-width:1.56498" />
      <path
         sodipodi:nodetypes="ssssssssssss"
         id="path837-5-62"
         d="m 32.68663,106.75836 c -1.353634,-0.63545 -3.256607,-2.63976 -4.228831,-4.454 -1.609603,-3.003647 -1.636184,-3.586326 -0.297268,-6.515896 0.877893,-1.920847 2.581936,-3.65418 4.228831,-4.301524 3.836592,-1.508035 3.817336,-1.473259 1.702094,-3.07402 -1.542336,-1.167204 -1.375273,-1.152264 0.893467,0.07992 2.629446,1.428078 2.901797,1.423488 4.71855,-0.07956 1.822868,-1.508143 1.891898,-1.509061 1.265564,-0.01692 -0.442928,1.055216 0.20779,2.408702 1.963517,4.084056 1.444293,1.378183 2.878948,3.930913 3.188138,5.672732 1.065314,6.001602 -7.41243,11.432052 -13.434062,8.605222 z"
         style="fill:#decd87;stroke-width:0.941285" />
      <path
         sodipodi:nodetypes="scccs"
         id="path837-5-6-0"
         d="m 62.499593,78.723497 c 4.113663,-9.542099 5.777637,-16.861425 5.880703,-24.004451 l 11.856551,6.22735 c 0,0 -1.610602,4.237953 -2.726182,6.278895 -4.327149,7.003289 -17.385367,17.005652 -15.011072,11.498206 z"
         style="fill:#66c900;fill-opacity:1;stroke-width:1.72671" />
      <path
         sodipodi:nodetypes="sssscsssssssssss"
         id="path837-5-6-7"
         d="m 70.487316,67.912883 c 4.578275,-10.189545 4.408869,-15.636709 -0.779201,-25.055006 -3.817818,-6.930764 -4.12936,-8.138594 -2.099235,-8.138594 0.752197,0 2.413475,-0.85403 3.691729,-1.897834 l 2.324095,-1.897844 -2.159814,2.558931 c -1.078291,1.27755 -3.012497,3.703272 -3.842086,3.755476 -1.358183,0.08547 -2.882958,-4.820421 -1.381556,-5.668736 0.541453,-0.305929 0.98446,-1.513759 0.98446,-2.684068 0,-2.122232 4.710124,-8.159941 5.6765,-7.276472 0.28005,0.256033 -0.401089,1.184385 -1.513648,2.063021 -1.112559,0.878627 -2.302102,2.478282 -2.643435,3.554784 -0.493717,1.557084 -0.165871,2.017129 1.603431,2.250005 4.779852,0.629119 10.83284,12.979948 10.976276,22.396562 0.07374,4.8396 -0.373948,6.624151 -2.4835,9.900024 -2.408159,3.739581 -9.675359,9.080593 -8.354016,6.139751 z"
         style="fill:#66c900;fill-opacity:1;stroke-width:0.941285" />
      <path
         id="path837-4"
         d="M 9.8807887,30.16772 C 12.356294,31.119354 23.767516,40.818362 32.486424,49.381452 l 8.336132,8.291193 -3.536864,4.088102 c -2.053563,2.373621 -3.26266,4.733788 -3.370301,4.767059 C 33.537979,66.644457 16.673038,54.112963 10.458126,49.123552 6.8749247,46.246906 3.4137566,43.093166 2.3941702,41.775877 0.7421168,39.641414 0.6034358,39.289125 0.5483847,37.086908 0.4958145,34.982661 0.6533578,34.492532 1.9032195,32.871689 4.3602469,29.685487 6.6273917,28.917052 9.8807887,30.16772 Z M 64.813066,50.97244 c 14.737018,1.813288 26.524004,14.915979 26.89623,29.898462 0.330076,13.286353 -6.585545,24.530088 -18.562425,30.179618 -2.846338,1.34261 -3.551684,1.50137 -9.071834,2.04179 -5.520145,0.54041 -6.241982,0.52138 -9.283804,-0.24479 -8.578035,-2.16066 -14.969061,-6.81209 -19.475774,-14.174621 -2.660515,-4.346434 -3.883373,-8.132725 -4.377553,-13.554122 -0.559134,-6.13464 0.268778,-11.317302 2.572584,-16.103153 0.51571,-1.071321 0.676187,-1.942865 0.455756,-2.475213 -0.274172,-0.662143 0.311286,-1.635626 3.015638,-5.014311 2.280895,-2.849633 3.511163,-4.083991 3.840672,-3.853455 0.318112,0.222574 1.651447,-0.414434 3.877847,-1.852657 4.572817,-2.953984 8.490312,-4.336282 13.584688,-4.793431 2.216119,-0.198853 5.153709,-0.223219 6.527975,-0.05412 z m -12.909689,6.83411 c -3.363121,1.310168 -7.623944,4.517018 -10.119591,7.616377 -2.748762,3.413705 -4.285772,6.539807 -5.385742,10.953994 -0.681801,2.736033 -0.717948,3.728439 -0.30002,8.236685 0.417928,4.508227 0.635767,5.475757 1.80802,8.030296 2.924318,6.372609 7.651146,11.103998 13.542284,13.555408 4.142012,1.72354 7.528832,2.229 12.033709,1.79591 4.672648,-0.44917 6.971127,-1.23577 11.121787,-3.80593 5.777895,-3.57775 9.615196,-9.043472 11.412317,-16.255325 0.681795,-2.736033 0.717942,-3.728438 0.300014,-8.236666 C 85.898228,75.189053 85.680388,74.221515 84.50814,71.666985 79.218649,60.140255 68.18767,54.272421 56.222678,56.620773 c -1.413776,0.277479 -3.35746,0.81108 -4.319301,1.185777 z"
         style="fill:#a7ac93;stroke-width:0.406344"
         sodipodi:nodetypes="sscssssccscssssscssssssccssssscssssscs" />
    </g>
  </g>
</svg>
